<?xml version="1.0" encoding="UTF-8"?>
<svg width="19px" height="32px" viewBox="0 0 19 32" version="1.1" xmlns="http://www.w3.org/2000/svg" xmlns:xlink="http://www.w3.org/1999/xlink">
    <!-- Generator: Sketch 48.2 (47327) - http://www.bohemiancoding.com/sketch -->
    <title>Group 8</title>
    <desc>Created with Sketch.</desc>
    <defs></defs>
    <g id="Apple-TV-Copy-10" stroke="none" stroke-width="1" fill="none" fill-rule="evenodd" transform="translate(-369.000000, -446.000000)">
        <g id="Group-6" transform="translate(366.000000, 137.000000)" fill-rule="nonzero">
            <g id="Stacked-Group-6" transform="translate(0.000000, 228.000000)">
                <g id="Group-2" transform="translate(0.000000, 81.000000)">
                    <g id="Group-8" transform="translate(3.000000, 0.000000)">
                        <g id="Etherium-Copy">
                            <g id="eth">
                                <path d="M9.5475,0.393846154 C9.5475,0.393846154 9.5475,0.393846154 9.5475,0.393846154 C9.5475,0.492307692 9.5475,0.590769231 9.5475,0.689230769 C9.5475,4.33230769 9.5475,8.02461538 9.5475,11.6676923 C9.5475,11.7169231 9.5475,11.8153846 9.5475,11.8646154 C9.5475,11.9138462 9.5,11.9630769 9.4525,11.9630769 C9.12,12.1107692 8.835,12.2584615 8.5025,12.4061538 C8.075,12.6030769 7.6,12.8 7.1725,13.0461538 C6.65,13.2923077 6.1275,13.5384615 5.605,13.7846154 C5.1775,13.9815385 4.75,14.1784615 4.3225,14.3753846 C3.8,14.6215385 3.2775,14.8676923 2.755,15.1138462 C2.3275,15.3107692 1.9,15.5076923 1.425,15.7538462 C1.0925,15.9015385 0.7125,16.0984615 0.38,16.2461538 C0.3325,16.2461538 0.3325,16.2953846 0.285,16.2461538 C0.285,16.2461538 0.285,16.2461538 0.2375,16.2461538 C0.38,16 0.5225,15.8030769 0.665,15.5569231 C1.425,14.2276923 2.2325,12.8984615 2.9925,11.5692308 C3.8,10.1415385 4.655,8.71384615 5.4625,7.28615385 C6.2225,5.95692308 6.9825,4.62769231 7.7425,3.34769231 C8.3125,2.36307692 8.8825,1.42769231 9.405,0.443076923 C9.5,0.443076923 9.5,0.393846154 9.5475,0.393846154 C9.5,0.393846154 9.5475,0.393846154 9.5475,0.393846154 C9.5475,0.393846154 9.5475,0.393846154 9.5475,0.393846154 Z" id="Shape" fill="#191B2A" opacity="0.8"></path>
                                <path d="M18.7625,16.2461538 C18.7625,16.2461538 18.7625,16.2461538 18.7625,16.2461538 C18.05,16.7384615 17.29,17.1815385 16.5775,17.6246154 C14.25,19.0523077 11.97,20.4307692 9.6425,21.8584615 C9.595,21.8584615 9.595,21.9076923 9.5475,21.9076923 C9.5,21.9076923 9.5,21.8584615 9.5,21.8584615 C9.5,21.8092308 9.5,21.76 9.5,21.7107692 C9.5,18.5107692 9.5,15.3107692 9.5,12.1107692 C9.5,12.0615385 9.5,12.0123077 9.5,11.9630769 C9.5,11.9138462 9.5475,11.9138462 9.595,11.9138462 C9.785,12.0123077 9.975,12.1107692 10.2125,12.2092308 C10.7825,12.5046154 11.4,12.7507692 11.97,13.0461538 C12.4925,13.2923077 12.9675,13.5384615 13.49,13.7353846 C14.0125,13.9815385 14.4875,14.2276923 15.01,14.4738462 C15.4375,14.6707692 15.9125,14.8676923 16.34,15.1138462 C16.7675,15.3107692 17.2425,15.5076923 17.67,15.7538462 C18.0025,15.9015385 18.335,16.0984615 18.715,16.2461538 C18.715,16.1969231 18.715,16.2461538 18.7625,16.2461538 Z" id="Shape" fill="#191B2A"></path>
                                <path d="M9.5475,31.5569231 C9.5475,31.5569231 9.5475,31.5569231 9.5475,31.5569231 C9.5475,31.5569231 9.5,31.5569231 9.5475,31.5569231 C9.5,31.5569231 9.5,31.5569231 9.4525,31.5076923 C8.5025,30.1292308 7.6,28.8 6.65,27.4215385 C5.7,26.0430769 4.75,24.6646154 3.8,23.2861538 C2.8975,21.9569231 1.9475,20.6276923 1.045,19.2492308 C0.8075,18.9046154 0.57,18.56 0.3325,18.2153846 C0.3325,18.1661538 0.285,18.1661538 0.285,18.1169231 C0.3325,18.1169231 0.3325,18.1661538 0.38,18.1661538 C1.6625,18.9538462 2.9925,19.7415385 4.275,20.5292308 C5.7475,21.4646154 7.2675,22.3507692 8.74,23.2861538 C8.9775,23.4338462 9.2625,23.5815385 9.5,23.7292308 C9.5475,23.7292308 9.5475,23.7784615 9.5475,23.8276923 C9.5475,23.8769231 9.5475,23.9261538 9.5475,23.9753846 C9.5475,26.4369231 9.5475,28.8492308 9.5475,31.3107692 C9.5475,31.36 9.5475,31.4584615 9.5475,31.5569231 Z" id="Shape" fill="#191B2A" opacity="0.8"></path>
                                <path d="M0.285,16.2461538 C0.285,16.2461538 0.3325,16.2461538 0.285,16.2461538 C0.3325,16.2461538 0.3325,16.2461538 0.285,16.2461538 C0.285,16.2953846 0.285,16.2953846 0.285,16.2461538 C0.285,16.2461538 0.285,16.2461538 0.285,16.2461538 C0.285,16.2461538 0.285,16.2461538 0.285,16.2461538 Z" id="Shape" fill="#808080"></path>
                                <path d="M0.3325,16.2953846 C0.3325,16.2461538 0.3325,16.2461538 0.3325,16.2953846 C0.8075,16.0492308 1.2825,15.8523077 1.7575,15.6061538 C2.375,15.3107692 2.9925,15.0153846 3.61,14.72 C4.085,14.4738462 4.56,14.2769231 5.035,14.0307692 C5.7,13.6861538 6.4125,13.3907692 7.0775,13.0461538 C7.5525,12.8492308 8.0275,12.6030769 8.5025,12.4061538 C8.835,12.2584615 9.1675,12.1107692 9.5,11.9138462 C9.5475,11.9138462 9.5475,11.8646154 9.595,11.8646154 C9.595,11.8646154 9.595,11.8646154 9.595,11.9138462 C9.595,11.9630769 9.595,11.9630769 9.595,12.0123077 C9.595,15.2615385 9.595,18.5107692 9.595,21.76 C9.595,21.8092308 9.595,21.8584615 9.595,21.9076923 C9.5475,21.9569231 9.5475,21.9076923 9.5,21.9076923 C9.3575,21.8092308 9.215,21.76 9.12,21.6615385 C6.2225,19.8892308 3.325,18.1169231 0.4275,16.3446154 C0.38,16.2953846 0.3325,16.2953846 0.3325,16.2953846 Z" id="Shape" fill="#191B2A" opacity="0.9"></path>
                                <path d="M18.715,18.1169231 C18.715,18.1169231 18.715,18.1169231 18.715,18.1169231 C18.715,18.1661538 18.715,18.1661538 18.6675,18.2153846 C15.9125,22.2523077 13.1575,26.24 10.4025,30.2769231 C10.1175,30.72 9.8325,31.1138462 9.5475,31.5569231 C9.5475,31.5569231 9.5475,31.5569231 9.5475,31.5076923 C9.5475,31.4584615 9.5475,31.4584615 9.5475,31.4092308 C9.5475,28.8984615 9.5475,26.3876923 9.5475,23.8769231 C9.5475,23.8276923 9.5475,23.7784615 9.5475,23.7292308 C10.165,23.3353846 10.7825,22.9415385 11.4,22.5969231 C13.8225,21.12 16.245,19.6430769 18.6675,18.1661538 C18.6675,18.1169231 18.715,18.1169231 18.715,18.1169231 Z" id="Shape" fill="#191B2A" opacity="0.5"></path>
                                <path d="M9.5475,11.9138462 C9.5475,11.9138462 9.5475,11.9138462 9.5475,11.9138462 C9.5475,11.8646154 9.5475,11.8153846 9.5475,11.8153846 C9.5475,8.07384615 9.5475,4.28307692 9.5475,0.541538462 C9.5475,0.492307692 9.5475,0.443076923 9.5475,0.443076923 C12.5875,5.66153846 15.6275,10.88 18.6675,16.0984615 C18.715,16.1476923 18.7625,16.1969231 18.7625,16.2461538 C18.5725,16.1476923 18.3825,16.0492308 18.145,15.9507692 C17.9075,15.8523077 17.67,15.7046154 17.4325,15.6061538 C17.29,15.5569231 17.1475,15.4584615 16.9575,15.4092308 C16.72,15.3107692 16.435,15.1630769 16.1975,15.0646154 C16.055,15.0153846 15.9125,14.9169231 15.77,14.8676923 C15.4375,14.72 15.105,14.5723077 14.7725,14.4246154 C14.5825,14.3261538 14.44,14.2769231 14.25,14.1784615 C14.0125,14.08 13.775,13.9323077 13.5375,13.8338462 C13.395,13.7846154 13.2525,13.6861538 13.11,13.6369231 C12.7775,13.4892308 12.445,13.3415385 12.1125,13.1938462 C11.9225,13.0953846 11.78,13.0461538 11.59,12.9476923 C11.3525,12.8492308 11.115,12.7015385 10.8775,12.6030769 C10.735,12.5046154 10.545,12.4553846 10.4025,12.3569231 C10.1175,12.2092308 9.8325,12.0615385 9.5475,11.9138462 C9.5475,11.9138462 9.5475,11.9138462 9.5475,11.9138462 Z" id="Shape" fill="#191B2A" opacity="0.5"></path>
                            </g>
                        </g>
                    </g>
                </g>
            </g>
        </g>
    </g>
</svg>