<?xml version="1.0" encoding="UTF-8"?>
<svg width="96px" height="96px" viewBox="0 0 96 96" version="1.1" xmlns="http://www.w3.org/2000/svg" xmlns:xlink="http://www.w3.org/1999/xlink">
    <!-- Generator: Sketch 48.2 (47327) - http://www.bohemiancoding.com/sketch -->
    <title>Google +</title>
    <desc>Created with Sketch.</desc>
    <defs></defs>
    <g id="realbit-copy-2" stroke="none" stroke-width="1" fill="none" fill-rule="evenodd" transform="translate(-914.000000, -3726.000000)">
        <g id="Stacked-Group-4" transform="translate(472.000000, 3724.000000)" fill="#333743">
            <path d="M442,50 C442,23.4903307 463.490331,2 490,2 C516.509669,2 538,23.4903307 538,50 C538,76.5096693 516.509669,98 490,98 C463.490331,98 442,76.5096693 442,50 Z M481.216057,48.6285714 L481.216057,53.84 L489.865376,53.84 C489.516789,56.0765714 487.250972,60.3977143 481.216057,60.3977143 C476.009036,60.3977143 471.76063,56.0982857 471.76063,50.8 C471.76063,45.5017143 476.009036,41.2022857 481.216057,41.2022857 C484.179048,41.2022857 486.161637,42.4617143 487.294545,43.5474286 L491.434018,39.5737143 C488.776041,37.0982857 485.333743,35.6 481.216057,35.6 C472.784604,35.6 465.965368,42.3965714 465.965368,50.8 C465.965368,59.2034286 472.784604,66 481.216057,66 C490.017883,66 495.856718,59.8331429 495.856718,51.1474286 C495.856718,50.1485714 495.747784,49.3885714 495.617064,48.6285714 L481.216057,48.6285714 Z M513.896104,48.6285714 L509.538764,48.6285714 L509.538764,44.2857143 L505.181425,44.2857143 L505.181425,48.6285714 L500.824085,48.6285714 L500.824085,52.9714286 L505.181425,52.9714286 L505.181425,57.3142857 L509.538764,57.3142857 L509.538764,52.9714286 L513.896104,52.9714286 L513.896104,48.6285714 Z" id="Google-+"></path>
        </g>
    </g>
</svg>