<?xml version="1.0" encoding="UTF-8"?>
<svg width="96px" height="96px" viewBox="0 0 96 96" version="1.1" xmlns="http://www.w3.org/2000/svg" xmlns:xlink="http://www.w3.org/1999/xlink">
    <!-- Generator: Sketch 48.2 (47327) - http://www.bohemiancoding.com/sketch -->
    <title>Telegram</title>
    <desc>Created with Sketch.</desc>
    <defs></defs>
    <g id="realbit-copy-2" stroke="none" stroke-width="1" fill="none" fill-rule="evenodd" transform="translate(-1060.000000, -3726.000000)">
        <g id="Stacked-Group-4" transform="translate(472.000000, 3724.000000)" fill="#333743">
            <path d="M628.016686,59.7645069 L627.2,72 C628.4,72 628.9302,71.4512 629.6,70.8 L635.365421,65.1938485 L647.36,74.0556 C649.5674,75.27356 651.16056,74.64296 651.7104,72.0062 L659.5844,34.901 C660.39056,31.66892 658.35236,30.203 656.24064,31.16172 L610.00464,48.99012 C606.8486,50.256 606.867,52.01676 609.42936,52.80132 L621.29456,56.50464 L648.76376,39.17464 C650.06052,38.38828 651.25068,38.811044 650.27384,39.678 L628.016,59.764 Z M636,98 C609.490332,98 588,76.509668 588,50 C588,23.490332 609.490332,2 636,2 C662.509668,2 684,23.490332 684,50 C684,76.509668 662.509668,98 636,98 Z" id="Telegram"></path>
        </g>
    </g>
</svg>