<?xml version="1.0" encoding="UTF-8"?>
<svg width="96px" height="96px" viewBox="0 0 96 96" version="1.1" xmlns="http://www.w3.org/2000/svg" xmlns:xlink="http://www.w3.org/1999/xlink">
    <!-- Generator: Sketch 48.2 (47327) - http://www.bohemiancoding.com/sketch -->
    <title>Medium</title>
    <desc>Created with Sketch.</desc>
    <defs></defs>
    <g id="realbit-copy-2" stroke="none" stroke-width="1" fill="none" fill-rule="evenodd" transform="translate(-1352.000000, -3726.000000)">
        <g id="Stacked-Group-4" transform="translate(472.000000, 3724.000000)" fill="#333743">
            <path d="M880,50 C880,23.4903307 901.490331,2 928,2 C954.509669,2 976,23.4903307 976,50 C976,76.5096693 954.509669,98 928,98 C901.490331,98 880,76.5096693 880,50 Z M920.649716,37.263583 L905.415603,29.6701944 C905.28526,29.605141 905.161003,29.5744681 905.048748,29.5744681 C904.88882,29.5744681 904.753574,29.6371621 904.658395,29.7515955 C904.565244,29.8635009 904.510638,30.0252918 904.510638,30.227699 L904.510638,62.8262159 C904.510638,63.3810241 904.917898,64.0377942 905.415603,64.2858737 L919.493701,71.3030505 C919.6893,71.4006307 919.875602,71.4468085 920.043983,71.4468085 C920.518359,71.4468085 920.851064,71.080925 920.851064,70.4667935 L920.851064,37.5885131 C920.851064,37.4509908 920.773128,37.3250972 920.649716,37.263583 Z M938.212766,64.4094896 L952.149113,71.3016429 C952.909663,71.6777737 953.531915,71.2973842 953.531915,70.4562004 L953.531915,39.787234 L938.212766,64.4094896 Z M921.87234,39.787234 L921.87234,56.7561243 L937.191489,64.2978723 L921.87234,39.787234 Z M953.324087,37.2775796 L937.477983,29.629093 C937.406044,29.5942863 937.32772,29.578132 937.249397,29.5761335 C937.244222,29.5759669 937.239219,29.5744681 937.234043,29.5744681 C937.041341,29.5744681 936.849501,29.6678967 936.745645,29.8306056 L926.978723,45.1520601 L937.881503,62.2553191 L953.476075,37.7923527 C953.591662,37.6108248 953.521448,37.3728401 953.324087,37.2775796 Z" id="Medium"></path>
        </g>
    </g>
</svg>