<?xml version="1.0" encoding="UTF-8"?>
<svg width="96px" height="96px" viewBox="0 0 96 96" version="1.1" xmlns="http://www.w3.org/2000/svg" xmlns:xlink="http://www.w3.org/1999/xlink">
    <!-- Generator: Sketch 48.2 (47327) - http://www.bohemiancoding.com/sketch -->
    <title>Twitter</title>
    <desc>Created with Sketch.</desc>
    <defs></defs>
    <g id="realbit-copy-2" stroke="none" stroke-width="1" fill="none" fill-rule="evenodd" transform="translate(-768.000000, -3726.000000)">
        <g id="Stacked-Group-4" transform="translate(472.000000, 3724.000000)" fill="#333743">
            <path d="M296,50 C296,23.4903307 317.490331,2 344,2 C370.509669,2 392,23.4903307 392,50 C392,76.5096693 370.509669,98 344,98 C317.490331,98 296,76.5096693 296,50 Z M342.562405,41.0150013 L342.66313,42.6759095 L340.98438,42.472533 C334.873728,41.692923 329.535302,39.0490282 325.002676,34.6086407 L322.786726,32.405395 L322.215951,34.0324072 C321.00725,37.6592886 321.779475,41.4895465 324.297601,44.0656491 C325.640601,45.4892848 325.338426,45.6926613 323.021751,44.8452591 C322.215951,44.5740904 321.510875,44.3707139 321.443725,44.4724022 C321.2087,44.7096748 322.0145,47.7942188 322.652426,49.0144779 C323.525376,50.7092823 325.304851,52.3701906 327.252202,53.3531771 L328.897377,54.1327871 L326.950027,54.1666832 C325.069826,54.1666832 325.002676,54.2005793 325.204126,54.9123971 C325.875626,57.1156428 328.528052,59.4544729 331.482653,60.4713555 L333.564303,61.1831733 L331.751253,62.2678481 C329.065252,63.8270682 325.909201,64.7083665 322.753151,64.7761586 C321.242275,64.8100547 320,64.9456391 320,65.0473273 C320,65.3862882 324.096151,67.2844691 326.479977,68.030183 C333.631453,70.2334287 342.12593,69.2843383 348.505182,65.5218726 C353.037808,62.8440816 357.570434,57.5223959 359.685659,52.3701906 C360.827209,49.6246075 361.96876,44.6079865 361.96876,42.2013643 C361.96876,40.6421443 362.069485,40.4387678 363.949685,38.5744829 C365.05766,37.4898081 366.098486,36.3034451 366.299936,35.9644842 C366.635686,35.3204585 366.602111,35.3204585 364.889785,35.896692 C362.03591,36.9135747 361.63301,36.7779903 363.04316,35.2526664 C364.083985,34.1679916 365.326261,32.2020185 365.326261,31.625785 C365.326261,31.5240967 364.822635,31.6935772 364.25186,31.998642 C363.64751,32.3376028 362.30451,32.8460442 361.29726,33.1511089 L359.484209,33.7273424 L357.839034,32.6087715 C356.932509,31.998642 355.656658,31.3207202 354.985158,31.1173437 C353.272833,30.6427985 350.653982,30.7105906 349.109532,31.252928 C344.912656,32.778252 342.26023,36.7101981 342.562405,41.0150013 Z" id="Twitter"></path>
        </g>
    </g>
</svg>