<?xml version="1.0" encoding="UTF-8"?>
<svg width="96px" height="96px" viewBox="0 0 96 96" version="1.1" xmlns="http://www.w3.org/2000/svg" xmlns:xlink="http://www.w3.org/1999/xlink">
    <!-- Generator: Sketch 48.2 (47327) - http://www.bohemiancoding.com/sketch -->
    <title>Facebook</title>
    <desc>Created with Sketch.</desc>
    <defs></defs>
    <g id="realbit-copy-2" stroke="none" stroke-width="1" fill="none" fill-rule="evenodd" transform="translate(-472.000000, -3726.000000)">
        <g id="Stacked-Group-4" transform="translate(472.000000, 3724.000000)" fill="#333743">
            <path d="M0,50 C0,23.4903307 21.4903307,2 48,2 C74.5096693,2 96,23.4903307 96,50 C96,76.5096693 74.5096693,98 48,98 C21.4903307,98 0,76.5096693 0,50 Z M51.4031102,76.6229534 L51.4031102,50.5084192 L58.6118637,50.5084192 L59.5671792,41.5092061 L51.4031102,41.5092061 L51.4153578,37.0050133 C51.4153578,34.6578799 51.6383668,33.4002323 55.0095282,33.4002323 L59.5161474,33.4002323 L59.5161474,24.4 L52.3063732,24.4 C43.646275,24.4 40.5981449,28.7655866 40.5981449,36.1071303 L40.5981449,41.5102253 L35.2,41.5102253 L35.2,50.5094384 L40.5981449,50.5094384 L40.5981449,76.6229534 L51.4031102,76.6229534 Z" id="Facebook"></path>
        </g>
    </g>
</svg>