<?xml version="1.0" encoding="UTF-8"?>
<svg width="96px" height="96px" viewBox="0 0 96 96" version="1.1" xmlns="http://www.w3.org/2000/svg" xmlns:xlink="http://www.w3.org/1999/xlink">
    <!-- Generator: Sketch 48.2 (47327) - http://www.bohemiancoding.com/sketch -->
    <title>Fill 256</title>
    <desc>Created with Sketch.</desc>
    <defs></defs>
    <g id="realbit-copy-2" stroke="none" stroke-width="1" fill="none" fill-rule="evenodd" transform="translate(-1206.000000, -3726.000000)">
        <g id="Stacked-Group-4" transform="translate(472.000000, 3724.000000)" fill="#333743">
            <path d="M803.857333,54.4521601 C803.908333,54.870868 803.938333,55.2956005 803.938333,55.7203329 C803.938333,59.7146254 801.625333,63.4287753 797.428333,66.1789933 C793.405333,68.8147444 788.080333,70.2666667 782.437333,70.2666667 C776.791333,70.2666667 771.469333,68.8147444 767.443333,66.1789933 C763.246333,63.4287753 760.936333,59.7146254 760.936333,55.7203329 C760.936333,55.2534285 760.969333,54.7895363 761.032333,54.3316686 C759.523333,53.2864051 758.533333,51.5392786 758.533333,49.5662307 C758.533333,46.3701942 761.122333,43.7736029 764.302333,43.7736029 C765.640333,43.7736029 766.870333,44.2344828 767.851333,45.0026159 C771.628333,42.6530321 776.473333,41.3125644 781.630333,41.1860484 L784.726333,31.3509314 C784.933333,30.6942529 785.611333,30.3086801 786.277333,30.4683314 L794.248333,32.3510107 C795.052333,30.7966706 796.669333,29.7333333 798.529333,29.7333333 C801.190333,29.7333333 803.356333,31.9082045 803.356333,34.5801031 C803.356333,37.2489893 801.190333,39.4238605 798.529333,39.4238605 C795.988333,39.4238605 793.900333,37.4387634 793.720333,34.9295283 L786.859333,33.308918 L784.363333,41.2312327 C789.148333,41.5143876 793.612333,42.851843 797.131333,45.0718985 C798.124333,44.2615933 799.387333,43.7736029 800.764333,43.7736029 C803.947333,43.7736029 806.533333,46.3701942 806.533333,49.5662307 C806.533333,51.6175981 805.465333,53.421958 803.857333,54.4521601 M782,2 C755.492,2 734,23.492 734,50 C734,76.511 755.492,98 782,98 C808.511,98 830,76.511 830,50 C830,23.492 808.511,2 782,2" id="Fill-256"></path>
        </g>
    </g>
</svg>