<?xml version="1.0" encoding="UTF-8"?>
<svg width="100px" height="100px" viewBox="0 0 100 100" version="1.1" xmlns="http://www.w3.org/2000/svg" xmlns:xlink="http://www.w3.org/1999/xlink">
    <!-- Generator: Sketch 48.2 (47327) - http://www.bohemiancoding.com/sketch -->
    <title>Instagram</title>
    <desc>Created with Sketch.</desc>
    <defs></defs>
    <g id="realbit-copy-2" stroke="none" stroke-width="1" fill="none" fill-rule="evenodd" transform="translate(-618.000000, -3724.000000)">
        <g id="Stacked-Group-4" transform="translate(472.000000, 3724.000000)" fill="#333743">
            <path d="M146,50 C146,22.3857611 168.385761,0 196,0 C223.614239,0 246,22.3857611 246,50 C246,77.6142389 223.614239,100 196,100 C168.385761,100 146,77.6142389 146,50 Z M196.0025,23.3333333 C188.760202,23.3333333 187.851304,23.3650003 185.00683,23.4944461 C182.167911,23.6244475 180.230114,24.0738966 178.53454,24.7333479 C176.780633,25.4144661 175.29284,26.3255867 173.810602,27.8083799 C172.327253,29.2906176 171.416133,30.7784109 170.732792,32.5317625 C170.071674,34.2278913 169.62167,36.1662448 169.493891,39.0040521 C169.366667,41.8485262 169.333333,42.7579801 169.333333,50.0002778 C169.333333,57.2425754 169.365556,58.148696 169.494446,60.9931701 C169.625003,63.8320885 170.074452,65.7698865 170.733348,67.4654597 C171.415022,69.2193669 172.326142,70.7071601 173.808936,72.1893978 C175.290618,73.6727466 176.778411,74.5860894 178.531207,75.2672076 C180.227891,75.926659 182.166245,76.3761081 185.004608,76.5061094 C187.849082,76.6355552 188.757425,76.6672222 195.999167,76.6672222 C203.24202,76.6672222 204.14814,76.6355552 206.992615,76.5061094 C209.831533,76.3761081 211.771553,75.926659 213.468238,75.2672076 C215.221589,74.5860894 216.70716,73.6727466 218.188842,72.1893978 C219.672191,70.7071601 220.583312,69.2193669 221.266652,67.4660153 C221.922214,65.7698865 222.372219,63.831533 222.505554,60.9937256 C222.633333,58.1492516 222.666667,57.2425754 222.666667,50.0002778 C222.666667,42.7579801 222.633333,41.8490818 222.505554,39.0046077 C222.372219,36.1656892 221.922214,34.2278913 221.266652,32.532318 C220.583312,30.7784109 219.672191,29.2906176 218.188842,27.8083799 C216.705493,26.3250312 215.222145,25.4139106 213.466571,24.7333479 C211.766553,24.0738966 209.827644,23.6244475 206.988726,23.4944461 C204.144252,23.3650003 203.238687,23.3333333 195.994167,23.3333333 L196.0025,23.3333333 Z M193.610253,28.1389389 C194.32026,28.1378278 195.112491,28.1389389 196.0025,28.1389389 C203.122574,28.1389389 203.966472,28.1644948 206.778168,28.2922739 C209.378195,28.411164 210.789321,28.845613 211.729331,29.2106168 C212.973788,29.6939551 213.861019,30.2717389 214.793807,31.205082 C215.72715,32.1384251 216.304934,33.0273232 216.789383,34.2717806 C217.154387,35.2106793 217.589392,36.6218051 217.707726,39.2218322 C217.835505,42.0329726 217.863283,42.8774258 217.863283,49.9941666 C217.863283,57.1109074 217.835505,57.9553606 217.707726,60.766501 C217.588836,63.3665281 217.154387,64.7776539 216.789383,65.7165526 C216.306045,66.96101 215.72715,67.8471304 214.793807,68.7799178 C213.860464,69.7132609 212.974343,70.2910447 211.729331,70.7743831 C210.790432,71.1410536 209.378195,71.5743914 206.778168,71.6932815 C203.967027,71.8210606 203.122574,71.8488387 196.0025,71.8488387 C188.88187,71.8488387 188.037973,71.8210606 185.226832,71.6932815 C182.626805,71.5732803 181.215679,71.1388313 180.275114,70.7738275 C179.030657,70.2904891 178.141758,69.7127053 177.208415,68.7793623 C176.275072,67.8460192 175.697289,66.9593433 175.212839,65.7143304 C174.847835,64.7754317 174.412831,63.3643059 174.294496,60.7642788 C174.166717,57.9531384 174.141161,57.1086852 174.141161,49.9874999 C174.141161,42.8663146 174.166717,42.0263058 174.294496,39.2151654 C174.413386,36.6151384 174.847835,35.2040125 175.212839,34.2640028 C175.696177,33.0195453 176.275072,32.1306472 177.208415,31.1973041 C178.141758,30.2639611 179.030657,29.6861773 180.275114,29.2017278 C181.215124,28.8350573 182.626805,28.4017195 185.226832,28.2822738 C187.686858,28.1711615 188.640201,28.1378278 193.610253,28.1322722 L193.610253,28.1389389 Z M210.237093,32.5667628 C208.470408,32.5667628 207.037059,33.9984444 207.037059,35.7656851 C207.037059,37.5323701 208.470408,38.9657184 210.237093,38.9657184 C212.003778,38.9657184 213.437126,37.5323701 213.437126,35.7656851 C213.437126,33.999 212.003778,32.5656517 210.237093,32.5656517 L210.237093,32.5667628 Z M196.0025,36.3056907 C188.439643,36.3056907 182.307913,42.4374212 182.307913,50.0002778 C182.307913,57.5631343 188.439643,63.6920871 196.0025,63.6920871 C203.565357,63.6920871 209.694865,57.5631343 209.694865,50.0002778 C209.694865,42.4374212 203.564801,36.3056907 196.001944,36.3056907 L196.0025,36.3056907 Z M196.0025,41.1112963 C200.91144,41.1112963 204.891482,45.0907822 204.891482,50.0002778 C204.891482,54.9092178 200.91144,58.8892593 196.0025,58.8892593 C191.093004,58.8892593 187.113519,54.9092178 187.113519,50.0002778 C187.113519,45.0907822 191.093004,41.1112963 196.0025,41.1112963 Z" id="Instagram"></path>
        </g>
    </g>
</svg>